<svg id="svg" version="1.1" xmlns="http://www.w3.org/2000/svg" xmlns:xlink="http://www.w3.org/1999/xlink" width="400" height="400" viewBox="0, 0, 400,400"><g id="svgg"><path id="path0" d="M163.777 243.906 C 162.986 244.455,162.000 246.175,162.000 247.004 C 162.000 247.690,163.452 250.153,169.190 259.200 C 169.400 259.530,171.017 262.009,172.785 264.709 C 174.553 267.409,176.000 269.698,176.000 269.795 C 176.000 269.892,177.734 272.633,179.853 275.886 C 188.157 288.631,189.279 290.481,188.926 290.834 C 188.746 291.014,183.858 291.215,178.064 291.280 C 165.408 291.424,166.000 291.164,166.000 296.569 C 166.000 299.806,166.093 300.083,167.716 301.683 C 167.762 301.729,172.568 301.864,178.395 301.983 C 189.770 302.216,190.224 302.316,188.512 304.211 C 188.121 304.645,187.530 305.524,187.200 306.163 C 186.870 306.803,186.123 307.838,185.540 308.463 L 184.479 309.600 175.986 309.600 C 165.668 309.600,166.000 309.433,166.000 314.617 C 166.000 319.558,166.227 319.747,172.459 320.000 C 177.826 320.218,178.444 320.543,176.812 322.295 C 176.366 322.774,176.000 323.266,176.000 323.387 C 176.000 323.508,174.798 325.450,173.328 327.703 C 171.858 329.956,170.258 332.430,169.771 333.200 C 169.284 333.970,166.841 337.750,164.343 341.600 C 158.032 351.324,157.937 351.592,160.080 353.589 C 161.133 354.569,168.928 354.812,170.078 353.900 C 170.812 353.318,179.600 340.186,179.600 339.671 C 179.600 339.480,179.960 338.998,180.400 338.600 C 180.840 338.202,181.200 337.712,181.200 337.511 C 181.200 337.310,182.606 335.043,184.325 332.473 C 186.044 329.903,188.425 326.286,189.617 324.436 C 192.732 319.602,191.748 320.000,200.585 320.000 L 208.313 320.000 211.225 324.500 C 212.826 326.975,214.706 329.900,215.403 331.000 C 216.100 332.100,218.229 335.391,220.135 338.313 C 222.041 341.235,223.600 343.800,223.600 344.013 C 223.600 344.226,223.780 344.400,224.000 344.400 C 224.220 344.400,224.400 344.587,224.400 344.815 C 224.400 345.305,228.941 352.194,230.124 353.500 C 231.496 355.015,239.577 354.863,240.809 353.300 C 242.032 351.748,241.681 349.917,239.515 346.556 C 233.382 337.037,230.400 332.344,230.400 332.208 C 230.400 332.123,229.140 330.152,227.600 327.828 C 226.060 325.504,224.800 323.504,224.800 323.385 C 224.800 323.265,224.419 322.652,223.953 322.022 C 222.632 320.235,223.147 320.000,228.388 320.000 L 233.129 320.000 234.164 318.769 C 235.823 316.798,235.599 311.942,233.765 310.108 C 233.389 309.732,231.201 309.599,225.329 309.595 C 220.968 309.592,217.040 309.491,216.600 309.370 C 215.852 309.166,212.400 304.453,212.400 303.637 C 212.400 303.433,212.175 303.175,211.900 303.064 C 210.128 302.345,213.393 302.012,222.274 302.006 C 234.888 301.998,235.456 301.730,235.129 295.937 C 234.867 291.305,235.178 291.423,222.890 291.280 C 211.439 291.147,210.311 290.699,213.613 287.600 C 213.730 287.490,214.444 286.410,215.200 285.200 C 215.955 283.990,219.508 278.500,223.096 273.000 C 226.683 267.500,229.791 262.730,230.003 262.400 C 230.214 262.070,232.316 258.830,234.674 255.200 C 239.477 247.804,240.047 245.977,238.056 244.365 C 236.791 243.341,229.890 243.241,228.483 244.227 C 227.523 244.899,223.600 250.487,223.600 251.182 C 223.600 251.412,223.442 251.600,223.249 251.600 C 223.055 251.600,222.673 252.140,222.400 252.800 C 222.127 253.460,221.745 254.000,221.551 254.000 C 221.358 254.000,221.200 254.183,221.200 254.406 C 221.200 254.630,217.847 259.895,213.748 266.106 C 209.650 272.318,206.111 277.805,205.884 278.300 C 205.657 278.795,205.320 279.200,205.136 279.200 C 204.951 279.200,204.800 279.374,204.800 279.587 C 204.800 280.040,201.590 284.862,201.001 285.294 C 200.356 285.767,200.167 285.662,199.568 284.503 C 199.255 283.899,197.785 281.560,196.300 279.304 C 194.815 277.048,193.600 275.037,193.600 274.834 C 193.600 274.632,193.440 274.407,193.244 274.333 C 193.049 274.260,192.464 273.466,191.944 272.570 C 190.854 270.688,186.639 264.083,181.752 256.600 C 179.884 253.740,178.255 251.085,178.131 250.700 C 178.008 250.315,177.748 250.000,177.553 250.000 C 177.359 250.000,177.200 249.818,177.200 249.596 C 177.200 248.755,173.765 244.039,173.000 243.830 C 171.809 243.504,164.266 243.566,163.777 243.906 " stroke="none" fill="#fafbfc" fill-rule="evenodd"></path><path id="path1" d="M123.200 23.600 C 123.200 23.833,121.867 24.000,120.000 24.000 C 118.240 24.000,116.800 24.163,116.800 24.363 C 116.800 24.563,115.855 24.820,114.700 24.935 C 112.173 25.187,111.315 25.363,110.000 25.898 C 109.450 26.123,108.870 26.230,108.711 26.136 C 108.553 26.043,107.998 26.245,107.479 26.585 C 106.961 26.925,106.416 27.082,106.268 26.935 C 106.121 26.787,106.000 26.877,106.000 27.133 C 106.000 27.390,105.561 27.600,105.024 27.600 C 104.487 27.600,103.936 27.780,103.800 28.000 C 103.664 28.220,103.203 28.400,102.776 28.400 C 102.349 28.400,102.000 28.580,102.000 28.800 C 102.000 29.020,101.640 29.200,101.200 29.200 C 100.760 29.200,100.400 29.380,100.400 29.600 C 100.400 29.820,100.040 30.000,99.600 30.000 C 99.160 30.000,98.800 30.180,98.800 30.400 C 98.800 30.620,98.440 30.800,98.000 30.800 C 97.560 30.800,97.200 30.980,97.200 31.200 C 97.200 31.420,96.880 31.600,96.488 31.600 C 96.097 31.600,95.517 31.960,95.200 32.400 C 94.883 32.840,94.380 33.200,94.083 33.200 C 93.406 33.200,92.353 34.219,92.686 34.552 C 92.822 34.689,92.619 34.800,92.235 34.800 C 91.851 34.800,90.846 35.520,90.000 36.400 C 89.154 37.280,88.265 38.000,88.024 38.000 C 87.596 38.000,82.400 42.981,82.400 43.392 C 82.400 43.505,81.680 44.363,80.800 45.297 C 79.920 46.231,79.200 47.182,79.200 47.410 C 79.200 47.637,78.840 48.083,78.400 48.400 C 77.960 48.717,77.600 49.284,77.600 49.660 C 77.600 50.035,77.350 50.593,77.045 50.898 C 76.358 51.585,74.800 54.762,74.800 55.475 C 74.800 55.764,74.620 56.000,74.400 56.000 C 74.180 56.000,74.000 56.360,74.000 56.800 C 74.000 57.240,73.820 57.600,73.600 57.600 C 73.380 57.600,73.200 57.960,73.200 58.400 C 73.200 58.840,73.020 59.200,72.800 59.200 C 72.580 59.200,72.400 59.650,72.400 60.200 C 72.400 60.750,72.220 61.200,72.000 61.200 C 71.780 61.200,71.600 61.740,71.600 62.400 C 71.600 63.060,71.420 63.600,71.200 63.600 C 70.980 63.600,70.800 64.140,70.800 64.800 C 70.800 65.460,70.620 66.000,70.400 66.000 C 70.180 66.000,70.000 66.540,70.000 67.200 C 70.000 67.860,69.820 68.400,69.600 68.400 C 69.380 68.400,69.200 69.120,69.200 70.000 C 69.200 70.880,69.020 71.600,68.800 71.600 C 68.578 71.600,68.400 72.667,68.400 74.000 C 68.400 75.333,68.222 76.400,68.000 76.400 C 67.747 76.400,67.600 79.333,67.600 84.400 C 67.600 89.467,67.747 92.400,68.000 92.400 C 68.222 92.400,68.400 93.467,68.400 94.800 C 68.400 96.133,68.578 97.200,68.800 97.200 C 69.020 97.200,69.200 97.920,69.200 98.800 C 69.200 99.680,69.380 100.400,69.600 100.400 C 69.820 100.400,70.000 100.940,70.000 101.600 C 70.000 102.260,70.180 102.800,70.400 102.800 C 70.620 102.800,70.800 103.340,70.800 104.000 C 70.800 104.660,70.980 105.200,71.200 105.200 C 71.420 105.200,71.600 105.650,71.600 106.200 C 71.600 106.750,71.780 107.200,72.000 107.200 C 72.220 107.200,72.400 107.560,72.400 108.000 C 72.400 108.440,72.580 108.800,72.800 108.800 C 73.020 108.800,73.200 109.160,73.200 109.600 C 73.200 110.040,73.380 110.400,73.600 110.400 C 73.820 110.400,74.000 110.580,74.000 110.800 C 74.000 111.060,68.267 111.200,57.600 111.200 C 46.933 111.200,41.200 111.340,41.200 111.600 C 41.200 111.820,40.480 112.000,39.600 112.000 C 38.720 112.000,38.000 112.180,38.000 112.400 C 38.000 112.620,37.640 112.800,37.200 112.800 C 36.760 112.800,36.400 112.980,36.400 113.200 C 36.400 113.420,36.040 113.600,35.600 113.600 C 35.160 113.600,34.800 113.780,34.800 114.000 C 34.800 114.220,34.512 114.400,34.160 114.400 C 33.809 114.400,33.017 114.940,32.400 115.600 C 31.783 116.260,31.068 116.800,30.811 116.800 C 30.207 116.800,29.200 117.807,29.200 118.411 C 29.200 118.668,28.660 119.383,28.000 120.000 C 27.340 120.617,26.800 121.326,26.800 121.576 C 26.800 121.827,26.448 122.722,26.017 123.566 C 25.587 124.410,25.347 125.213,25.484 125.350 C 25.621 125.488,25.523 125.600,25.267 125.600 C 25.010 125.600,24.800 126.050,24.800 126.600 C 24.800 127.150,24.620 127.600,24.400 127.600 C 24.137 127.600,24.000 137.267,24.000 155.800 C 24.000 174.333,24.137 184.000,24.400 184.000 C 24.620 184.000,24.800 184.720,24.800 185.600 C 24.800 186.480,24.980 187.200,25.200 187.200 C 25.420 187.200,25.600 187.545,25.600 187.967 C 25.600 188.388,25.735 188.793,25.900 188.867 C 26.065 188.940,26.560 189.718,27.000 190.596 C 27.898 192.388,31.702 196.400,32.503 196.400 C 32.789 196.400,33.283 196.760,33.600 197.200 C 33.917 197.640,34.497 198.000,34.888 198.000 C 35.280 198.000,35.600 198.180,35.600 198.400 C 35.600 198.620,35.960 198.800,36.400 198.800 C 36.840 198.800,37.200 198.980,37.200 199.200 C 37.200 199.420,37.740 199.600,38.400 199.600 C 39.060 199.600,39.600 199.780,39.600 200.000 C 39.600 200.266,93.333 200.400,200.000 200.400 C 306.667 200.400,360.400 200.266,360.400 200.000 C 360.400 199.780,360.940 199.600,361.600 199.600 C 362.260 199.600,362.800 199.420,362.800 199.200 C 362.800 198.980,363.160 198.800,363.600 198.800 C 364.040 198.800,364.400 198.620,364.400 198.400 C 364.400 198.180,364.636 198.000,364.925 198.000 C 365.213 198.000,365.836 197.640,366.308 197.200 C 366.780 196.760,367.359 196.400,367.594 196.400 C 368.200 196.400,371.600 192.926,371.600 192.307 C 371.600 192.024,371.915 191.596,372.300 191.355 C 373.257 190.757,374.838 187.487,375.094 185.573 C 375.210 184.708,375.462 184.000,375.653 184.000 C 375.846 184.000,376.000 171.309,376.000 155.400 C 376.000 139.042,375.848 126.800,375.645 126.800 C 375.450 126.800,375.169 125.990,375.021 125.000 C 374.872 124.010,374.624 123.200,374.470 123.200 C 374.315 123.200,373.885 122.499,373.514 121.643 C 372.774 119.934,368.363 115.200,367.510 115.200 C 367.217 115.200,366.717 114.840,366.400 114.400 C 366.083 113.960,365.503 113.600,365.112 113.600 C 364.720 113.600,364.400 113.420,364.400 113.200 C 364.400 112.980,363.860 112.800,363.200 112.800 C 362.540 112.800,362.000 112.620,362.000 112.400 C 362.000 112.180,361.460 112.000,360.800 112.000 C 360.140 112.000,359.600 111.820,359.600 111.600 C 359.600 111.340,353.867 111.200,343.200 111.200 C 332.533 111.200,326.800 111.060,326.800 110.800 C 326.800 110.580,326.980 110.400,327.200 110.400 C 327.420 110.400,327.600 109.950,327.600 109.400 C 327.600 108.850,327.780 108.400,328.000 108.400 C 328.220 108.400,328.400 108.040,328.400 107.600 C 328.400 107.160,328.580 106.800,328.800 106.800 C 329.020 106.800,329.200 106.260,329.200 105.600 C 329.200 104.940,329.380 104.400,329.600 104.400 C 329.820 104.400,330.000 103.860,330.000 103.200 C 330.000 102.540,330.180 102.000,330.400 102.000 C 330.620 102.000,330.800 101.460,330.800 100.800 C 330.800 100.140,330.980 99.600,331.200 99.600 C 331.420 99.600,331.600 98.700,331.600 97.600 C 331.600 96.500,331.780 95.600,332.000 95.600 C 332.222 95.600,332.400 94.533,332.400 93.200 C 332.400 91.867,332.578 90.800,332.800 90.800 C 333.049 90.800,333.200 88.467,333.200 84.600 C 333.200 80.733,333.049 78.400,332.800 78.400 C 332.574 78.400,332.400 77.267,332.400 75.800 C 332.400 74.333,332.226 73.200,332.000 73.200 C 331.780 73.200,331.600 72.300,331.600 71.200 C 331.600 70.100,331.420 69.200,331.200 69.200 C 330.980 69.200,330.800 68.660,330.800 68.000 C 330.800 67.340,330.620 66.800,330.400 66.800 C 330.180 66.800,330.000 66.181,330.000 65.424 C 330.000 64.667,329.820 63.936,329.600 63.800 C 329.380 63.664,329.200 63.203,329.200 62.776 C 329.200 62.349,329.020 62.000,328.800 62.000 C 328.580 62.000,328.400 61.550,328.400 61.000 C 328.400 60.450,328.220 60.000,328.000 60.000 C 327.780 60.000,327.600 59.640,327.600 59.200 C 327.600 58.760,327.420 58.400,327.200 58.400 C 326.980 58.400,326.800 58.040,326.800 57.600 C 326.800 57.160,326.620 56.800,326.400 56.800 C 326.180 56.800,326.000 56.337,326.000 55.771 C 326.000 55.206,325.730 54.473,325.400 54.143 C 325.070 53.813,324.800 53.196,324.800 52.771 C 324.800 52.347,324.620 52.000,324.400 52.000 C 324.180 52.000,324.000 51.764,324.000 51.475 C 324.000 51.187,323.640 50.564,323.200 50.092 C 322.760 49.620,322.400 49.044,322.400 48.813 C 322.400 48.582,321.860 47.828,321.200 47.137 C 320.540 46.446,320.000 45.710,320.000 45.501 C 320.000 45.033,317.651 42.800,317.158 42.800 C 316.961 42.800,316.800 42.522,316.800 42.182 C 316.800 41.471,315.055 39.600,314.392 39.600 C 314.148 39.600,313.071 38.700,312.000 37.600 C 310.929 36.500,309.782 35.600,309.453 35.600 C 309.123 35.600,308.740 35.240,308.600 34.800 C 308.460 34.360,308.088 34.000,307.773 34.000 C 307.458 34.000,307.200 33.820,307.200 33.600 C 307.200 33.380,307.012 33.200,306.783 33.200 C 306.554 33.200,305.980 32.840,305.508 32.400 C 305.036 31.960,304.413 31.600,304.125 31.600 C 303.836 31.600,303.600 31.420,303.600 31.200 C 303.600 30.980,303.240 30.800,302.800 30.800 C 302.360 30.800,302.000 30.620,302.000 30.400 C 302.000 30.180,301.640 30.000,301.200 30.000 C 300.760 30.000,300.400 29.820,300.400 29.600 C 300.400 29.380,300.164 29.200,299.875 29.200 C 299.586 29.200,298.605 28.840,297.694 28.400 C 296.784 27.960,295.848 27.600,295.614 27.600 C 295.380 27.600,294.877 27.446,294.495 27.258 C 292.930 26.488,289.718 25.531,288.500 25.472 C 287.785 25.437,287.200 25.272,287.200 25.105 C 287.200 24.937,286.480 24.800,285.600 24.800 C 284.720 24.800,284.000 24.620,284.000 24.400 C 284.000 24.167,282.667 24.000,280.800 24.000 C 278.933 24.000,277.600 23.833,277.600 23.600 C 277.600 23.349,275.133 23.200,271.000 23.200 C 266.867 23.200,264.400 23.349,264.400 23.600 C 264.400 23.831,263.133 24.000,261.400 24.000 C 259.750 24.000,258.400 24.158,258.400 24.352 C 258.400 24.545,257.365 24.802,256.100 24.921 C 253.565 25.160,252.799 25.305,252.200 25.658 C 251.980 25.788,250.854 26.116,249.699 26.387 C 248.543 26.659,247.497 27.042,247.375 27.240 C 247.253 27.438,246.820 27.600,246.414 27.600 C 245.616 27.600,242.285 29.209,242.067 29.700 C 241.993 29.865,241.588 30.000,241.167 30.000 C 240.745 30.000,240.400 30.180,240.400 30.400 C 240.400 30.620,240.040 30.800,239.600 30.800 C 239.160 30.800,238.800 30.980,238.800 31.200 C 238.800 31.420,238.480 31.600,238.088 31.600 C 237.697 31.600,237.117 31.960,236.800 32.400 C 236.483 32.840,235.903 33.200,235.512 33.200 C 235.120 33.200,234.800 33.380,234.800 33.600 C 234.800 33.820,234.512 34.000,234.160 34.000 C 233.809 34.000,233.017 34.540,232.400 35.200 C 231.783 35.860,231.067 36.400,230.808 36.400 C 230.549 36.400,229.646 37.120,228.800 38.000 C 227.954 38.880,227.098 39.600,226.896 39.600 C 226.694 39.600,225.690 40.525,224.664 41.655 C 223.639 42.786,222.800 43.594,222.800 43.452 C 222.800 43.309,220.370 45.623,217.400 48.593 C 214.430 51.563,212.000 54.192,212.000 54.436 C 212.000 54.680,211.441 55.401,210.758 56.040 C 210.074 56.678,209.652 57.200,209.819 57.200 C 209.986 57.200,209.735 57.536,209.261 57.947 C 208.788 58.358,208.400 58.863,208.400 59.071 C 208.400 59.278,207.684 60.067,206.809 60.824 C 205.934 61.581,205.214 62.425,205.209 62.700 C 205.204 62.974,204.480 63.941,203.600 64.848 C 202.720 65.755,202.000 66.668,202.000 66.877 C 202.000 67.400,200.956 68.400,200.410 68.400 C 199.829 68.400,198.000 66.569,198.000 65.987 C 198.000 65.740,197.280 64.846,196.400 64.000 C 195.520 63.154,194.800 62.168,194.800 61.808 C 194.800 61.448,194.620 61.264,194.400 61.400 C 194.180 61.536,194.000 61.433,194.000 61.171 C 194.000 60.650,192.483 59.200,191.939 59.200 C 191.752 59.200,191.600 58.844,191.600 58.409 C 191.600 57.973,190.610 56.627,189.400 55.417 C 188.190 54.207,187.200 53.028,187.200 52.796 C 187.200 52.269,178.516 43.600,177.987 43.600 C 177.774 43.600,177.600 43.300,177.600 42.933 C 177.600 42.567,177.486 42.380,177.347 42.519 C 177.208 42.658,176.596 42.238,175.987 41.586 C 175.378 40.934,174.757 40.400,174.608 40.400 C 174.459 40.400,173.646 39.680,172.800 38.800 C 171.954 37.920,171.051 37.200,170.792 37.200 C 170.533 37.200,169.817 36.660,169.200 36.000 C 168.583 35.340,167.831 34.800,167.528 34.800 C 167.225 34.800,166.717 34.440,166.400 34.000 C 166.083 33.560,165.543 33.200,165.200 33.200 C 164.857 33.200,164.317 32.840,164.000 32.400 C 163.683 31.960,163.103 31.600,162.712 31.600 C 162.320 31.600,162.000 31.420,162.000 31.200 C 162.000 30.980,161.640 30.800,161.200 30.800 C 160.760 30.800,160.400 30.620,160.400 30.400 C 160.400 30.180,160.055 30.000,159.633 30.000 C 159.212 30.000,158.807 29.865,158.733 29.700 C 158.515 29.209,155.184 27.600,154.386 27.600 C 153.980 27.600,153.528 27.408,153.383 27.173 C 153.238 26.938,152.872 26.840,152.571 26.956 C 152.270 27.071,151.739 26.882,151.393 26.535 C 151.046 26.189,150.658 26.009,150.530 26.137 C 150.403 26.264,149.736 26.134,149.049 25.848 C 148.362 25.562,147.305 25.350,146.700 25.377 C 146.095 25.404,145.600 25.285,145.600 25.113 C 145.600 24.941,144.880 24.800,144.000 24.800 C 143.120 24.800,142.400 24.620,142.400 24.400 C 142.400 24.165,141.000 24.000,139.000 24.000 C 137.000 24.000,135.600 23.835,135.600 23.600 C 135.600 23.351,133.267 23.200,129.400 23.200 C 125.533 23.200,123.200 23.351,123.200 23.600 M131.764 57.941 C 131.880 58.129,133.820 58.384,136.076 58.508 C 138.467 58.640,140.238 58.915,140.322 59.167 C 140.402 59.405,140.902 59.600,141.433 59.600 C 141.965 59.600,142.400 59.780,142.400 60.000 C 142.400 60.220,142.760 60.400,143.200 60.400 C 143.640 60.400,144.000 60.580,144.000 60.800 C 144.000 61.020,144.320 61.200,144.712 61.200 C 145.103 61.200,145.683 61.560,146.000 62.000 C 146.317 62.440,146.809 62.800,147.092 62.800 C 147.375 62.800,148.172 63.340,148.863 64.000 C 149.554 64.660,150.278 65.200,150.472 65.200 C 150.961 65.200,162.000 76.359,162.000 76.853 C 162.000 77.072,162.900 78.129,164.000 79.200 C 165.100 80.271,166.000 81.318,166.000 81.526 C 166.000 81.734,166.720 82.645,167.600 83.552 C 168.480 84.459,169.200 85.398,169.200 85.640 C 169.200 85.881,169.740 86.583,170.400 87.200 C 171.060 87.817,171.600 88.519,171.600 88.760 C 171.600 89.002,171.780 89.200,172.000 89.200 C 172.220 89.200,172.400 89.430,172.400 89.712 C 172.400 89.993,172.760 90.483,173.200 90.800 C 173.640 91.117,174.000 91.541,174.000 91.741 C 174.000 91.942,174.333 92.397,174.741 92.753 C 175.148 93.109,175.803 94.030,176.197 94.800 C 176.590 95.570,177.023 96.290,177.159 96.400 C 177.296 96.510,177.856 97.274,178.404 98.097 C 178.952 98.921,179.535 99.596,179.700 99.597 C 179.865 99.599,180.000 99.920,180.000 100.312 C 180.000 100.703,180.360 101.283,180.800 101.600 C 181.240 101.917,181.600 102.373,181.600 102.613 C 181.600 102.853,181.915 103.398,182.300 103.825 C 182.685 104.251,183.255 105.095,183.568 105.700 C 183.880 106.305,184.285 106.800,184.468 106.800 C 184.650 106.800,184.800 106.998,184.800 107.240 C 184.800 107.481,185.340 108.183,186.000 108.800 C 188.711 111.333,190.313 111.200,157.000 111.200 C 137.133 111.200,126.800 111.063,126.800 110.800 C 126.800 110.580,126.082 110.400,125.204 110.400 C 124.327 110.400,122.716 110.061,121.625 109.646 C 120.534 109.232,119.542 108.992,119.420 109.113 C 119.299 109.234,119.200 109.123,119.200 108.867 C 119.200 108.610,118.840 108.400,118.400 108.400 C 117.960 108.400,117.600 108.220,117.600 108.000 C 117.600 107.780,117.280 107.600,116.888 107.600 C 116.497 107.600,115.917 107.240,115.600 106.800 C 115.283 106.360,114.790 106.000,114.504 106.000 C 113.790 106.000,108.800 100.953,108.800 100.231 C 108.800 99.910,108.631 99.543,108.425 99.416 C 108.219 99.288,107.802 98.693,107.499 98.092 C 107.195 97.491,106.734 96.595,106.474 96.100 C 105.361 93.985,105.200 93.569,105.200 92.805 C 105.200 92.362,105.020 92.000,104.800 92.000 C 104.580 92.000,104.400 91.460,104.400 90.800 C 104.400 90.140,104.220 89.600,104.000 89.600 C 103.756 89.600,103.600 87.733,103.600 84.800 C 103.600 81.867,103.756 80.000,104.000 80.000 C 104.220 80.000,104.400 79.280,104.400 78.400 C 104.400 77.520,104.580 76.800,104.800 76.800 C 105.020 76.800,105.200 76.438,105.200 75.995 C 105.200 75.552,105.408 74.787,105.662 74.295 C 105.917 73.803,106.249 73.130,106.400 72.800 C 107.202 71.051,108.152 69.640,109.500 68.199 C 109.995 67.670,110.400 67.040,110.400 66.800 C 110.400 66.222,112.239 64.400,112.821 64.400 C 113.073 64.400,113.783 63.860,114.400 63.200 C 115.017 62.540,115.809 62.000,116.160 62.000 C 116.512 62.000,116.801 61.865,116.803 61.700 C 116.807 61.341,118.744 60.400,119.480 60.400 C 119.766 60.400,120.000 60.220,120.000 60.000 C 120.000 59.780,120.345 59.600,120.767 59.600 C 121.188 59.600,121.593 59.424,121.667 59.209 C 121.740 58.994,123.381 58.697,125.314 58.549 C 127.246 58.401,128.922 58.127,129.037 57.940 C 129.311 57.497,131.490 57.498,131.764 57.941 M272.600 58.188 C 276.931 58.576,279.200 58.940,279.200 59.247 C 279.200 59.441,279.560 59.600,280.000 59.600 C 280.440 59.600,280.800 59.780,280.800 60.000 C 280.800 60.220,281.160 60.400,281.600 60.400 C 282.040 60.400,282.400 60.580,282.400 60.800 C 282.400 61.020,282.720 61.200,283.112 61.200 C 283.503 61.200,284.083 61.560,284.400 62.000 C 284.717 62.440,285.218 62.800,285.513 62.800 C 286.243 62.800,292.858 69.582,292.575 70.040 C 292.451 70.241,292.613 70.507,292.935 70.631 C 293.258 70.754,293.637 71.473,293.779 72.228 C 293.920 72.982,294.208 73.600,294.418 73.600 C 294.628 73.600,294.800 73.960,294.800 74.400 C 294.800 74.840,294.980 75.200,295.200 75.200 C 295.420 75.200,295.600 75.740,295.600 76.400 C 295.600 77.060,295.780 77.600,296.000 77.600 C 296.220 77.600,296.400 78.320,296.400 79.200 C 296.400 80.080,296.580 80.800,296.800 80.800 C 297.037 80.800,297.200 82.267,297.200 84.400 C 297.200 86.533,297.037 88.000,296.800 88.000 C 296.580 88.000,296.400 88.900,296.400 90.000 C 296.400 91.100,296.220 92.000,296.000 92.000 C 295.780 92.000,295.600 92.450,295.600 93.000 C 295.600 93.550,295.420 94.000,295.200 94.000 C 294.980 94.000,294.800 94.234,294.800 94.520 C 294.800 95.280,293.854 97.193,293.476 97.197 C 293.298 97.199,293.264 97.380,293.400 97.600 C 293.536 97.820,293.457 98.000,293.224 98.000 C 292.991 98.000,292.800 98.320,292.800 98.712 C 292.800 99.103,292.440 99.683,292.000 100.000 C 291.560 100.317,291.200 100.812,291.200 101.099 C 291.200 101.778,287.778 105.200,287.099 105.200 C 286.812 105.200,286.317 105.560,286.000 106.000 C 285.683 106.440,285.143 106.800,284.800 106.800 C 284.457 106.800,283.917 107.160,283.600 107.600 C 283.283 108.040,282.703 108.400,282.312 108.400 C 281.920 108.400,281.600 108.564,281.600 108.765 C 281.600 108.965,281.285 109.082,280.900 109.024 C 280.515 108.967,279.420 109.252,278.467 109.660 C 277.514 110.067,276.119 110.400,275.367 110.400 C 274.615 110.400,274.000 110.580,274.000 110.800 C 274.000 111.063,263.667 111.200,243.800 111.200 C 211.150 111.200,211.584 111.230,214.400 109.200 C 214.840 108.883,215.200 108.393,215.200 108.112 C 215.200 107.830,215.350 107.600,215.532 107.600 C 215.715 107.600,216.119 107.105,216.430 106.500 C 216.740 105.895,217.311 105.109,217.697 104.753 C 218.084 104.397,218.400 103.852,218.400 103.541 C 218.400 103.231,218.760 102.717,219.200 102.400 C 219.640 102.083,220.000 101.585,220.000 101.294 C 220.000 101.002,220.450 100.314,221.000 99.764 C 221.550 99.214,222.000 98.600,222.000 98.400 C 222.000 98.200,222.450 97.586,223.000 97.036 C 223.550 96.486,224.000 95.841,224.000 95.601 C 224.000 95.192,224.306 94.746,225.500 93.415 C 225.775 93.108,226.000 92.653,226.000 92.403 C 226.000 92.153,226.540 91.494,227.200 90.939 C 227.860 90.383,228.400 89.747,228.400 89.525 C 228.400 89.303,228.940 88.617,229.600 88.000 C 230.260 87.383,230.800 86.667,230.800 86.408 C 230.800 86.149,231.520 85.246,232.400 84.400 C 233.280 83.554,234.000 82.654,234.000 82.400 C 234.000 82.146,234.720 81.246,235.600 80.400 C 236.480 79.554,237.200 78.654,237.200 78.399 C 237.200 77.808,250.645 64.400,251.237 64.400 C 251.480 64.400,252.183 63.860,252.800 63.200 C 253.417 62.540,254.209 62.000,254.560 62.000 C 254.912 62.000,255.200 61.820,255.200 61.600 C 255.200 61.380,255.571 61.200,256.024 61.200 C 256.477 61.200,256.736 61.020,256.600 60.800 C 256.460 60.573,256.796 60.400,257.376 60.400 C 257.939 60.400,258.400 60.220,258.400 60.000 C 258.400 59.780,258.655 59.600,258.967 59.600 C 259.278 59.600,259.594 59.418,259.668 59.196 C 259.742 58.974,261.834 58.676,264.316 58.534 C 266.798 58.392,268.934 58.107,269.062 57.900 C 269.189 57.694,269.768 57.650,270.347 57.802 C 270.926 57.955,271.940 58.129,272.600 58.188 M45.600 290.600 C 45.600 336.333,45.735 359.600,46.000 359.600 C 46.220 359.600,46.400 360.140,46.400 360.800 C 46.400 361.460,46.580 362.000,46.800 362.000 C 47.020 362.000,47.200 362.540,47.200 363.200 C 47.200 363.860,47.380 364.400,47.600 364.400 C 47.820 364.400,48.000 364.720,48.000 365.112 C 48.000 365.503,48.360 366.083,48.800 366.400 C 49.240 366.717,49.600 367.225,49.600 367.529 C 49.600 368.210,54.781 373.200,55.488 373.200 C 55.770 373.200,56.000 373.380,56.000 373.600 C 56.000 373.820,56.360 374.000,56.800 374.000 C 57.240 374.000,57.600 374.180,57.600 374.400 C 57.600 374.620,57.915 374.801,58.300 374.802 C 58.685 374.804,59.516 375.074,60.146 375.402 C 60.776 375.731,61.991 376.000,62.846 376.000 C 63.701 376.000,64.400 376.180,64.400 376.400 C 64.400 376.666,110.000 376.800,200.400 376.800 C 290.800 376.800,336.400 376.666,336.400 376.400 C 336.400 376.180,337.120 376.000,338.000 376.000 C 338.880 376.000,339.600 375.840,339.600 375.645 C 339.600 375.450,340.410 375.169,341.400 375.021 C 342.390 374.872,343.200 374.594,343.200 374.402 C 343.200 374.211,343.539 373.946,343.952 373.815 C 344.618 373.604,345.250 373.157,347.100 371.592 C 347.375 371.359,347.600 371.269,347.600 371.392 C 347.600 371.514,348.230 370.966,349.000 370.173 C 349.770 369.380,350.400 368.517,350.400 368.254 C 350.400 367.991,350.760 367.517,351.200 367.200 C 351.640 366.883,352.000 366.303,352.000 365.912 C 352.000 365.520,352.180 365.200,352.400 365.200 C 352.620 365.200,352.800 364.840,352.800 364.400 C 352.800 363.960,352.980 363.600,353.200 363.600 C 353.420 363.600,353.600 363.240,353.600 362.800 C 353.600 362.360,353.780 362.000,354.000 362.000 C 354.220 362.000,354.400 361.280,354.400 360.400 C 354.400 359.520,354.580 358.800,354.800 358.800 C 355.065 358.800,355.200 335.667,355.200 290.200 L 355.200 221.600 200.400 221.600 L 45.600 221.600 45.600 290.600 M174.672 244.250 C 175.402 245.048,176.000 245.948,176.000 246.250 C 176.000 246.553,176.150 246.800,176.332 246.800 C 176.515 246.800,176.920 247.295,177.232 247.900 C 177.545 248.505,178.115 249.349,178.500 249.775 C 178.885 250.202,179.200 250.787,179.200 251.075 C 179.200 251.364,179.380 251.600,179.600 251.600 C 179.820 251.600,180.000 251.870,180.000 252.200 C 180.000 252.530,180.180 252.800,180.400 252.800 C 180.620 252.800,180.800 252.987,180.800 253.215 C 180.800 253.444,181.880 255.237,183.200 257.200 C 184.520 259.163,185.600 260.866,185.600 260.984 C 185.600 261.102,186.230 262.075,187.000 263.147 C 187.770 264.219,188.400 265.196,188.400 265.318 C 188.400 265.441,189.300 266.900,190.400 268.561 C 191.500 270.222,192.400 271.766,192.400 271.991 C 192.400 272.216,192.550 272.400,192.732 272.400 C 192.915 272.400,193.320 272.895,193.632 273.500 C 193.945 274.105,194.515 274.949,194.900 275.375 C 195.285 275.802,195.600 276.387,195.600 276.675 C 195.600 276.964,195.780 277.200,196.000 277.200 C 196.220 277.200,196.400 277.385,196.400 277.610 C 196.400 277.836,197.362 279.458,198.538 281.214 L 200.675 284.407 202.998 280.903 C 204.276 278.977,205.474 277.340,205.660 277.267 C 205.847 277.193,206.000 276.912,206.000 276.642 C 206.000 276.372,206.315 275.793,206.700 275.355 C 207.085 274.917,207.625 274.163,207.900 273.680 C 208.175 273.196,208.625 272.404,208.900 271.920 C 209.175 271.437,209.706 270.692,210.080 270.266 C 210.454 269.840,211.036 268.911,211.373 268.201 C 211.710 267.491,212.259 266.683,212.593 266.406 C 212.927 266.129,213.200 265.761,213.200 265.588 C 213.200 265.288,217.950 257.927,218.796 256.917 C 219.018 256.651,219.200 256.324,219.200 256.189 C 219.200 255.814,221.710 252.218,222.077 252.067 C 222.255 251.993,222.400 251.758,222.400 251.545 C 222.400 251.060,225.625 246.248,226.072 246.067 C 226.253 245.993,226.400 245.703,226.400 245.421 C 226.400 242.609,236.086 241.465,238.758 243.960 C 240.520 245.607,240.487 247.778,238.655 250.559 C 237.916 251.681,236.392 254.040,235.269 255.800 C 234.146 257.560,233.041 259.218,232.812 259.485 C 232.584 259.752,232.188 260.427,231.934 260.985 C 231.680 261.543,231.320 262.000,231.136 262.000 C 230.951 262.000,230.800 262.177,230.800 262.393 C 230.800 262.609,228.817 265.804,226.392 269.493 C 223.968 273.182,221.360 277.190,220.597 278.400 C 219.834 279.610,217.770 282.805,216.011 285.500 L 212.812 290.400 223.028 290.400 L 233.243 290.400 234.522 291.595 C 235.788 292.778,235.800 292.825,235.800 296.639 L 235.800 300.488 234.415 301.644 L 233.030 302.800 222.915 302.800 C 216.438 302.800,212.800 302.944,212.800 303.200 C 212.800 303.420,212.950 303.600,213.132 303.600 C 213.315 303.600,213.717 304.095,214.025 304.700 C 214.334 305.305,214.949 306.383,215.393 307.095 L 216.200 308.390 224.615 308.395 L 233.030 308.400 234.415 309.556 L 235.800 310.712 235.800 314.530 C 235.800 318.208,235.757 318.392,234.625 319.574 L 233.450 320.800 228.925 320.800 C 226.436 320.800,224.400 320.892,224.400 321.005 C 224.400 321.358,225.367 322.922,226.100 323.755 C 226.485 324.193,226.800 324.787,226.800 325.075 C 226.800 325.364,226.980 325.600,227.200 325.600 C 227.420 325.600,227.600 325.836,227.600 326.125 C 227.600 326.413,227.960 327.036,228.400 327.508 C 228.840 327.980,229.200 328.472,229.200 328.601 C 229.200 328.730,230.100 330.170,231.200 331.800 C 232.300 333.430,233.200 334.856,233.200 334.968 C 233.200 335.137,236.406 340.215,239.155 344.400 C 239.516 344.950,240.064 345.895,240.373 346.500 C 240.682 347.105,241.085 347.600,241.268 347.600 C 241.450 347.600,241.600 347.960,241.600 348.400 C 241.600 348.840,241.780 349.200,242.000 349.200 C 243.689 349.200,241.999 353.937,239.920 355.032 C 236.001 357.094,227.200 354.301,227.200 350.996 C 227.200 350.857,226.660 349.959,226.000 349.000 C 225.340 348.041,224.800 347.063,224.800 346.828 C 224.800 346.593,224.650 346.400,224.468 346.400 C 224.285 346.400,223.880 345.905,223.568 345.300 C 223.255 344.695,222.685 343.851,222.300 343.425 C 221.915 342.998,221.600 342.413,221.600 342.125 C 221.600 341.836,221.420 341.600,221.200 341.600 C 220.980 341.600,220.800 341.364,220.800 341.075 C 220.800 340.787,220.440 340.164,220.000 339.692 C 219.560 339.220,219.200 338.742,219.200 338.631 C 219.200 338.519,218.002 336.576,216.538 334.314 C 215.074 332.051,213.368 329.390,212.748 328.400 C 212.128 327.410,211.436 326.383,211.211 326.117 C 210.985 325.851,210.800 325.533,210.800 325.411 C 210.800 325.288,210.145 324.200,209.343 322.994 L 207.887 320.800 200.400 320.800 L 192.913 320.800 191.457 322.994 C 190.655 324.200,190.000 325.274,190.000 325.378 C 190.000 325.483,189.010 327.023,187.800 328.800 C 186.590 330.577,185.600 332.121,185.600 332.231 C 185.600 332.592,180.673 339.797,180.332 339.933 C 180.150 340.007,180.000 340.288,180.000 340.558 C 180.000 340.828,179.685 341.398,179.300 341.825 C 178.915 342.251,178.345 343.095,178.032 343.700 C 177.720 344.305,177.315 344.800,177.132 344.800 C 176.950 344.800,176.800 345.145,176.800 345.567 C 176.800 345.988,176.653 346.393,176.472 346.467 C 176.075 346.628,172.807 351.424,172.784 351.878 C 172.597 355.572,162.228 357.158,159.238 353.949 C 158.082 352.708,158.060 349.316,159.200 348.092 C 159.640 347.620,160.000 347.142,160.000 347.031 C 160.000 346.802,163.680 340.988,166.040 337.487 C 166.898 336.216,167.600 335.084,167.600 334.972 C 167.600 334.609,172.526 327.404,172.868 327.267 C 173.050 327.193,173.200 326.871,173.200 326.550 C 173.200 326.229,173.560 325.580,174.000 325.108 C 174.440 324.636,174.800 324.013,174.800 323.725 C 174.800 323.436,174.980 323.200,175.200 323.200 C 175.420 323.200,175.600 322.930,175.600 322.600 C 175.600 322.270,175.780 322.000,176.000 322.000 C 176.220 322.000,176.400 321.730,176.400 321.400 C 176.400 320.902,175.636 320.800,171.922 320.800 C 165.709 320.800,165.200 320.344,165.200 314.786 C 165.200 308.610,165.574 308.400,176.567 308.400 L 184.746 308.400 185.573 307.238 C 186.028 306.599,186.400 305.879,186.400 305.638 C 186.400 305.397,186.559 305.200,186.753 305.200 C 186.948 305.200,187.218 304.885,187.354 304.500 C 187.489 304.115,187.705 303.575,187.834 303.300 C 188.017 302.907,185.886 302.800,177.876 302.800 L 167.685 302.800 166.442 301.640 C 164.594 299.913,164.531 293.493,166.343 291.596 L 167.487 290.400 177.743 290.400 C 183.384 290.400,188.000 290.309,188.000 290.197 C 188.000 290.085,186.797 288.150,185.326 285.897 C 182.844 282.094,180.923 279.103,178.270 274.909 C 177.681 273.978,177.200 273.033,177.200 272.809 C 177.200 272.584,177.020 272.400,176.800 272.400 C 176.580 272.400,176.400 272.212,176.400 271.983 C 176.400 271.754,176.040 271.180,175.600 270.708 C 175.160 270.236,174.800 269.613,174.800 269.325 C 174.800 269.036,174.620 268.800,174.400 268.800 C 174.180 268.800,174.000 268.530,174.000 268.200 C 174.000 267.870,173.820 267.600,173.600 267.600 C 173.380 267.600,173.200 267.413,173.200 267.185 C 173.200 266.956,172.120 265.163,170.800 263.200 C 169.480 261.237,168.400 259.526,168.400 259.398 C 168.400 259.271,168.215 258.949,167.989 258.683 C 167.764 258.417,167.068 257.390,166.443 256.400 C 165.819 255.410,164.474 253.305,163.454 251.721 C 159.443 245.493,160.974 242.800,168.526 242.800 L 173.343 242.800 174.672 244.250 " stroke="none" fill="#349cec" fill-rule="evenodd"></path><path id="path2" d="M165.600 243.059 C 168.912 243.353,173.112 243.376,172.940 243.100 C 172.837 242.935,170.828 242.830,168.476 242.867 C 166.124 242.904,164.830 242.990,165.600 243.059 M229.062 243.100 C 228.960 243.265,230.822 243.400,233.200 243.400 C 235.578 243.400,237.440 243.265,237.338 243.100 C 237.236 242.935,235.374 242.800,233.200 242.800 C 231.026 242.800,229.164 242.935,229.062 243.100 M239.458 246.400 C 239.775 248.125,240.002 248.451,239.994 247.167 C 239.991 246.635,239.811 245.930,239.594 245.600 C 239.318 245.178,239.277 245.415,239.458 246.400 M177.149 248.600 C 177.365 249.040,177.834 249.760,178.193 250.200 L 178.844 251.000 178.451 250.200 C 178.235 249.760,177.766 249.040,177.407 248.600 L 176.756 247.800 177.149 248.600 M166.200 255.600 C 166.541 256.260,166.911 256.800,167.021 256.800 C 167.131 256.800,166.941 256.260,166.600 255.600 C 166.259 254.940,165.889 254.400,165.779 254.400 C 165.669 254.400,165.859 254.940,166.200 255.600 M191.960 271.800 C 192.634 273.105,193.188 273.828,193.185 273.400 C 193.183 273.180,192.814 272.550,192.364 272.000 C 191.821 271.336,191.685 271.269,191.960 271.800 M205.846 277.000 C 205.491 277.550,204.909 278.495,204.553 279.100 L 203.905 280.200 204.710 279.226 C 205.660 278.076,206.921 276.000,206.669 276.000 C 206.571 276.000,206.201 276.450,205.846 277.000 M197.549 280.600 C 197.765 281.040,198.234 281.760,198.593 282.200 L 199.244 283.000 198.851 282.200 C 198.635 281.760,198.166 281.040,197.807 280.600 L 197.156 279.800 197.549 280.600 M185.815 286.300 C 187.156 288.385,187.600 288.977,187.600 288.680 C 187.600 288.296,185.555 285.200,185.301 285.200 C 185.195 285.200,185.426 285.695,185.815 286.300 M214.153 287.300 C 212.776 289.636,212.686 289.835,213.387 289.000 C 214.200 288.032,214.900 286.800,214.638 286.800 C 214.533 286.800,214.315 287.025,214.153 287.300 M188.162 289.938 C 188.374 290.282,185.854 290.424,178.324 290.493 L 168.200 290.585 178.173 290.700 C 187.413 290.806,189.696 290.601,188.373 289.783 C 188.053 289.585,187.978 289.641,188.162 289.938 M212.747 290.507 C 212.916 290.676,217.452 290.766,222.827 290.707 L 232.600 290.599 222.519 290.399 C 216.975 290.290,212.577 290.338,212.747 290.507 M233.800 301.450 C 233.081 302.062,232.934 302.305,233.433 302.057 C 234.166 301.693,235.541 300.376,235.149 300.414 C 235.067 300.422,234.460 300.888,233.800 301.450 M177.200 308.400 L 169.000 308.625 177.076 308.713 C 182.126 308.767,185.245 308.650,185.400 308.400 C 185.536 308.180,185.592 308.039,185.524 308.087 C 185.456 308.136,181.710 308.276,177.200 308.400 M219.921 308.699 C 222.188 308.770,225.788 308.770,227.921 308.698 C 230.055 308.626,228.200 308.568,223.800 308.568 C 219.400 308.568,217.655 308.627,219.921 308.699 M171.753 328.900 C 170.376 331.236,170.286 331.435,170.987 330.600 C 171.800 329.632,172.500 328.400,172.238 328.400 C 172.133 328.400,171.915 328.625,171.753 328.900 M229.549 330.200 C 229.765 330.640,230.234 331.360,230.593 331.800 L 231.244 332.600 230.851 331.800 C 230.635 331.360,230.166 330.640,229.807 330.200 L 229.156 329.400 229.549 330.200 M234.349 337.800 C 234.565 338.240,235.034 338.960,235.393 339.400 L 236.044 340.200 235.651 339.400 C 235.435 338.960,234.966 338.240,234.607 337.800 L 233.956 337.000 234.349 337.800 M180.553 338.900 C 179.176 341.236,179.086 341.435,179.787 340.600 C 180.600 339.632,181.300 338.400,181.038 338.400 C 180.933 338.400,180.715 338.625,180.553 338.900 M241.800 351.200 C 241.800 352.038,241.935 352.640,242.100 352.538 C 242.265 352.436,242.400 351.834,242.400 351.200 C 242.400 350.566,242.265 349.964,242.100 349.862 C 241.935 349.760,241.800 350.362,241.800 351.200 M163.300 355.094 C 164.345 355.176,166.055 355.176,167.100 355.094 C 168.145 355.012,167.290 354.944,165.200 354.944 C 163.110 354.944,162.255 355.012,163.300 355.094 M233.513 355.095 C 234.676 355.176,236.476 355.176,237.513 355.093 C 238.551 355.011,237.600 354.945,235.400 354.946 C 233.200 354.947,232.351 355.014,233.513 355.095 " stroke="none" fill="#79baf0" fill-rule="evenodd"></path><path id="path3" d="M163.500 243.632 C 162.667 244.117,161.600 246.062,161.600 247.097 C 161.600 247.811,165.116 253.715,166.052 254.574 C 166.666 255.137,166.342 254.570,163.921 250.849 C 161.842 247.655,161.635 246.711,162.677 245.189 C 163.715 243.672,163.923 243.612,168.200 243.612 C 173.452 243.611,173.554 243.651,175.348 246.422 C 176.195 247.730,176.979 248.800,177.090 248.800 C 177.284 248.800,177.027 248.370,174.905 245.140 C 174.378 244.336,173.553 243.574,173.073 243.445 C 171.612 243.053,164.247 243.197,163.500 243.632 M228.807 243.496 C 227.798 243.892,223.011 250.400,223.729 250.400 C 223.827 250.400,224.673 249.223,225.611 247.784 C 228.193 243.820,228.592 243.600,233.210 243.600 C 240.633 243.600,240.972 245.544,235.107 254.483 C 231.120 260.559,230.246 262.000,230.548 262.000 C 231.503 262.000,239.668 247.770,239.461 246.468 C 239.011 243.645,232.824 241.919,228.807 243.496 M178.000 250.605 C 178.000 250.899,181.685 256.400,181.882 256.400 C 182.074 256.400,181.979 256.233,179.893 252.900 C 178.459 250.609,178.000 250.052,178.000 250.605 M221.837 253.000 C 221.476 253.550,221.337 254.000,221.527 254.000 C 221.716 254.000,222.077 253.550,222.327 253.000 C 222.578 252.450,222.717 252.000,222.637 252.000 C 222.557 252.000,222.197 252.450,221.837 253.000 M217.954 258.885 C 216.331 261.368,214.929 263.580,214.838 263.800 C 214.748 264.020,213.294 266.270,211.609 268.800 C 208.235 273.866,207.650 274.821,208.303 274.200 C 209.067 273.474,221.254 254.721,221.077 254.544 C 220.982 254.449,219.576 256.402,217.954 258.885 M166.950 256.200 C 167.274 256.860,167.831 257.760,168.189 258.200 C 168.797 258.948,168.801 258.922,168.250 257.800 C 167.926 257.140,167.369 256.240,167.011 255.800 C 166.403 255.052,166.399 255.078,166.950 256.200 M182.464 257.600 C 184.780 261.392,187.345 265.189,187.491 265.042 C 187.669 264.864,183.040 257.730,182.273 257.000 C 182.042 256.780,182.128 257.050,182.464 257.600 M169.437 260.200 C 169.797 260.750,170.157 261.200,170.237 261.200 C 170.317 261.200,170.178 260.750,169.927 260.200 C 169.677 259.650,169.316 259.200,169.127 259.200 C 168.937 259.200,169.076 259.650,169.437 260.200 M229.273 263.400 C 229.022 263.950,228.883 264.400,228.963 264.400 C 229.043 264.400,229.403 263.950,229.763 263.400 C 230.124 262.850,230.263 262.400,230.073 262.400 C 229.884 262.400,229.523 262.850,229.273 263.400 M171.803 263.800 C 175.055 269.009,175.728 270.005,175.887 269.846 C 175.987 269.746,175.128 268.255,173.980 266.533 C 171.919 263.442,170.347 261.469,171.803 263.800 M188.223 266.700 C 190.641 270.423,191.736 272.000,191.903 272.000 C 192.007 272.000,191.770 271.505,191.377 270.900 C 188.959 267.177,187.864 265.600,187.697 265.600 C 187.593 265.600,187.830 266.095,188.223 266.700 M224.988 270.100 C 223.097 272.941,214.835 285.714,214.250 286.700 C 214.086 286.975,214.029 287.200,214.122 287.200 C 214.281 287.200,215.843 284.844,222.870 274.000 C 224.509 271.470,226.175 268.905,226.571 268.300 C 226.968 267.695,227.208 267.200,227.105 267.200 C 227.002 267.200,226.049 268.505,224.988 270.100 M177.423 272.700 C 179.841 276.423,180.936 278.000,181.103 278.000 C 181.207 278.000,180.970 277.505,180.577 276.900 C 178.159 273.177,177.064 271.600,176.897 271.600 C 176.793 271.600,177.030 272.095,177.423 272.700 M192.022 272.600 C 192.027 273.129,193.142 274.591,193.369 274.365 C 193.466 274.268,193.202 273.741,192.782 273.194 C 192.361 272.647,192.020 272.380,192.022 272.600 M193.600 275.005 C 193.600 275.299,197.285 280.800,197.482 280.800 C 197.674 280.800,197.579 280.633,195.493 277.300 C 194.059 275.009,193.600 274.452,193.600 275.005 M205.437 278.200 C 205.076 278.750,204.937 279.200,205.127 279.200 C 205.316 279.200,205.677 278.750,205.927 278.200 C 206.178 277.650,206.317 277.200,206.237 277.200 C 206.157 277.200,205.797 277.650,205.437 278.200 M181.961 279.665 C 182.926 281.463,186.456 286.800,186.681 286.800 C 186.772 286.800,186.425 286.125,185.912 285.300 C 185.399 284.475,184.444 282.923,183.789 281.851 C 182.146 279.157,180.874 277.637,181.961 279.665 M202.614 282.462 L 200.705 285.334 199.961 284.367 C 199.552 283.835,199.220 283.580,199.222 283.800 C 199.229 284.569,200.303 285.612,200.849 285.381 C 201.440 285.132,204.925 279.992,204.674 279.741 C 204.591 279.658,203.664 280.883,202.614 282.462 M187.609 288.651 C 187.604 288.899,187.868 289.324,188.196 289.596 C 189.445 290.633,188.053 290.800,178.146 290.800 L 167.938 290.800 166.769 291.969 C 164.943 293.795,164.988 299.507,166.842 301.240 L 168.085 302.400 178.442 302.400 C 184.139 302.400,188.800 302.540,188.800 302.711 C 188.800 302.882,188.520 303.422,188.177 303.911 C 187.835 304.400,187.714 304.800,187.910 304.800 C 188.451 304.800,189.331 302.935,189.024 302.438 C 188.839 302.140,185.568 302.000,178.750 302.000 C 166.026 302.000,166.034 302.003,166.013 296.544 C 165.992 291.176,165.387 291.440,178.231 291.200 C 189.460 290.990,189.754 290.932,188.399 289.200 C 187.970 288.650,187.614 288.403,187.609 288.651 M212.396 289.608 C 211.594 291.106,212.177 291.200,222.324 291.206 C 232.891 291.212,233.747 291.351,234.686 293.208 C 234.962 293.754,235.185 293.930,235.181 293.600 C 235.154 291.159,233.550 290.800,222.693 290.800 C 212.497 290.800,212.179 290.760,212.828 289.547 C 213.048 289.136,213.138 288.800,213.028 288.800 C 212.918 288.800,212.633 289.164,212.396 289.608 M235.320 296.800 C 235.320 298.010,235.395 298.505,235.487 297.900 C 235.578 297.295,235.578 296.305,235.487 295.700 C 235.395 295.095,235.320 295.590,235.320 296.800 M234.272 300.509 L 233.545 301.800 234.419 300.942 C 234.901 300.470,235.228 299.889,235.147 299.651 C 235.066 299.413,234.673 299.799,234.272 300.509 M222.333 301.987 C 212.691 302.187,211.001 302.365,211.788 303.100 C 211.965 303.265,212.190 303.175,212.288 302.900 C 212.425 302.518,214.857 302.400,222.610 302.400 C 228.940 302.400,232.846 302.250,233.000 302.000 C 233.136 301.780,233.102 301.639,232.924 301.687 C 232.746 301.734,227.980 301.869,222.333 301.987 M212.400 303.729 C 212.400 304.094,214.445 307.200,214.686 307.200 C 214.879 307.200,213.292 304.448,212.736 303.820 C 212.551 303.611,212.400 303.570,212.400 303.729 M186.232 306.982 L 185.166 308.800 177.083 308.828 C 172.637 308.844,168.640 309.011,168.200 309.200 C 167.283 309.594,183.557 309.745,184.581 309.352 C 185.299 309.076,187.787 305.654,187.487 305.354 C 187.383 305.249,186.818 305.982,186.232 306.982 M215.224 308.274 C 215.989 309.520,216.511 309.588,225.329 309.595 C 233.577 309.600,233.687 309.621,234.714 311.400 C 235.066 312.010,235.179 312.050,235.188 311.570 C 235.230 309.398,233.708 309.008,224.675 308.877 C 217.407 308.771,216.104 308.658,215.449 308.077 C 214.716 307.426,214.707 307.434,215.224 308.274 M165.867 311.067 C 165.720 311.213,165.600 312.868,165.600 314.745 C 165.600 319.923,166.180 320.400,172.475 320.400 C 177.069 320.400,178.379 320.824,176.800 321.800 C 176.580 321.936,176.400 322.257,176.400 322.513 C 176.400 322.769,176.686 322.570,177.036 322.070 C 178.278 320.297,177.639 320.000,172.594 320.000 C 166.320 320.000,165.885 319.626,166.072 314.389 C 166.142 312.414,166.185 310.799,166.167 310.799 C 166.148 310.800,166.013 310.920,165.867 311.067 M235.320 314.800 C 235.320 316.010,235.395 316.505,235.487 315.900 C 235.578 315.295,235.578 314.305,235.487 313.700 C 235.395 313.095,235.320 313.590,235.320 314.800 M234.080 318.810 C 233.164 319.969,233.133 319.976,228.312 320.088 C 223.100 320.208,222.600 320.436,224.030 322.039 L 224.887 323.000 224.243 321.914 C 223.890 321.317,223.600 320.732,223.600 320.614 C 223.600 320.496,225.735 320.400,228.345 320.400 C 233.124 320.400,235.200 319.657,235.200 317.945 C 235.200 317.442,235.097 317.522,234.080 318.810 M200.400 320.302 L 208.200 320.423 210.046 323.311 C 215.560 331.938,217.705 335.200,217.867 335.200 C 218.127 335.200,217.423 334.065,211.228 324.500 L 208.313 320.000 200.457 320.091 L 192.600 320.182 200.400 320.302 M190.593 322.886 C 187.673 327.348,187.520 327.600,187.747 327.600 C 188.040 327.600,192.498 320.765,192.321 320.587 C 192.247 320.513,191.469 321.548,190.593 322.886 M174.539 325.096 C 173.887 326.143,173.028 327.495,172.631 328.100 C 172.233 328.705,171.992 329.200,172.095 329.200 C 172.397 329.200,176.074 323.540,175.891 323.358 C 175.800 323.266,175.191 324.048,174.539 325.096 M224.821 323.286 C 224.796 323.627,229.983 331.600,230.230 331.600 C 230.400 331.600,226.807 325.769,225.521 323.957 C 225.148 323.431,224.833 323.129,224.821 323.286 M184.246 332.646 C 182.531 335.185,181.206 337.339,181.300 337.434 C 181.395 337.528,182.864 335.517,184.564 332.964 C 186.264 330.411,187.590 328.257,187.510 328.177 C 187.430 328.096,185.961 330.108,184.246 332.646 M168.341 334.692 C 166.944 336.832,165.733 338.743,165.651 338.939 C 165.569 339.135,164.298 341.119,162.827 343.347 C 159.648 348.162,159.502 348.400,159.725 348.400 C 159.820 348.400,161.397 346.105,163.230 343.300 C 165.062 340.495,167.429 336.876,168.489 335.258 C 170.625 331.998,171.315 330.800,171.055 330.800 C 170.960 330.800,169.739 332.551,168.341 334.692 M230.400 332.182 C 230.400 332.340,233.172 336.712,239.515 346.556 C 243.282 352.402,242.244 354.400,235.441 354.400 C 230.232 354.400,230.675 354.669,227.201 349.400 C 225.234 346.417,223.820 344.559,224.613 346.000 C 225.564 347.729,229.830 353.867,230.372 354.287 C 231.540 355.193,239.679 354.958,240.720 353.989 C 242.976 351.886,242.310 349.782,236.800 341.600 C 235.985 340.390,234.290 337.735,233.035 335.700 C 230.991 332.388,230.400 331.599,230.400 332.182 M180.198 338.802 C 179.798 339.244,179.566 339.699,179.682 339.815 C 179.797 339.930,180.190 339.569,180.555 339.012 C 181.352 337.796,181.193 337.702,180.198 338.802 M219.848 338.500 C 221.492 341.289,223.331 344.003,223.476 343.857 C 223.660 343.673,220.020 338.000,219.718 338.000 C 219.627 338.000,219.685 338.225,219.848 338.500 M174.818 347.173 C 169.669 354.923,170.371 354.404,165.067 354.387 C 160.457 354.373,159.825 354.097,158.980 351.729 C 158.680 350.888,158.427 350.527,158.418 350.926 C 158.351 353.692,160.223 354.781,165.067 354.791 C 170.415 354.803,169.850 355.208,174.757 347.845 C 179.574 340.619,179.713 340.400,179.482 340.400 C 179.392 340.400,177.293 343.448,174.818 347.173 " stroke="none" fill="#a6d2f5" fill-rule="evenodd"></path><path id="path4" d="M228.000 243.313 C 227.670 243.581,227.135 244.160,226.812 244.600 C 226.368 245.204,226.516 245.156,227.412 244.406 C 228.065 243.859,228.771 243.274,228.980 243.106 C 229.220 242.913,229.220 242.805,228.980 242.813 C 228.771 242.820,228.330 243.045,228.000 243.313 M239.055 244.600 C 239.980 246.179,240.000 246.203,240.000 245.711 C 240.000 245.479,239.629 244.864,239.176 244.344 L 238.353 243.400 239.055 244.600 M239.094 249.303 L 238.388 250.600 239.194 249.656 C 239.880 248.852,240.246 247.994,239.900 248.003 C 239.845 248.004,239.482 248.589,239.094 249.303 M237.446 251.800 C 237.091 252.350,236.509 253.295,236.153 253.900 L 235.505 255.000 236.310 254.026 C 237.260 252.876,238.521 250.800,238.269 250.800 C 238.171 250.800,237.801 251.250,237.446 251.800 M164.830 253.800 C 165.324 254.680,165.900 255.580,166.110 255.800 C 166.709 256.428,165.339 253.894,164.596 253.000 C 164.230 252.560,164.335 252.920,164.830 253.800 M219.814 255.035 C 219.441 255.604,219.227 256.161,219.339 256.272 C 219.450 256.383,219.829 255.918,220.181 255.237 C 220.959 253.733,220.744 253.615,219.814 255.035 M183.018 257.500 C 184.756 260.192,185.600 261.364,185.600 261.087 C 185.600 260.705,182.750 256.400,182.497 256.400 C 182.393 256.400,182.628 256.895,183.018 257.500 M168.400 259.320 C 168.400 259.704,170.445 262.800,170.699 262.800 C 170.878 262.800,170.241 261.719,168.939 259.811 C 168.642 259.377,168.400 259.156,168.400 259.320 M215.216 262.253 C 214.092 263.933,213.248 265.382,213.340 265.473 C 213.432 265.565,214.109 264.686,214.845 263.520 C 215.581 262.354,216.499 260.905,216.886 260.300 C 218.449 257.852,217.118 259.409,215.216 262.253 M229.853 263.700 L 229.133 265.000 229.958 264.000 C 230.689 263.113,231.014 262.400,230.686 262.400 C 230.624 262.400,230.249 262.985,229.853 263.700 M212.198 266.802 C 211.798 267.244,211.566 267.699,211.682 267.815 C 211.797 267.930,212.190 267.569,212.555 267.012 C 213.352 265.796,213.193 265.702,212.198 266.802 M194.645 275.812 C 195.010 276.369,195.386 276.747,195.482 276.651 C 195.719 276.414,194.684 274.800,194.295 274.800 C 194.122 274.800,194.280 275.256,194.645 275.812 M221.329 276.700 C 219.761 279.169,219.520 279.600,219.709 279.600 C 219.845 279.600,221.741 276.742,222.562 275.300 C 223.317 273.975,222.392 275.024,221.329 276.700 M179.026 276.000 C 179.541 277.043,181.728 280.400,181.893 280.400 C 182.144 280.400,180.443 277.501,179.545 276.400 C 179.097 275.850,178.864 275.670,179.026 276.000 M202.384 281.825 L 200.673 284.451 199.897 283.225 C 199.072 281.922,198.510 281.523,199.157 282.700 C 200.478 285.104,200.568 285.100,202.272 282.564 C 204.218 279.669,204.496 279.200,204.271 279.200 C 204.173 279.200,203.324 280.381,202.384 281.825 M217.125 283.300 C 214.595 287.128,214.306 287.600,214.497 287.600 C 214.664 287.600,215.759 286.023,218.177 282.300 C 218.570 281.695,218.807 281.200,218.703 281.200 C 218.598 281.200,217.889 282.145,217.125 283.300 M183.409 283.026 C 183.781 283.701,184.441 284.691,184.876 285.226 L 185.667 286.200 184.991 284.974 C 184.619 284.299,183.959 283.309,183.524 282.774 L 182.733 281.800 183.409 283.026 M165.823 292.089 C 165.350 292.764,165.217 293.897,165.272 296.789 L 165.345 300.600 165.572 296.559 C 165.715 294.025,166.005 292.273,166.349 291.859 C 166.651 291.497,166.796 291.200,166.672 291.200 C 166.547 291.200,166.165 291.600,165.823 292.089 M234.448 291.800 C 234.804 292.240,235.195 292.870,235.316 293.200 C 235.503 293.709,235.542 293.704,235.568 293.162 C 235.586 292.811,235.195 292.181,234.700 291.762 C 233.808 291.006,233.806 291.007,234.448 291.800 M235.731 296.600 C 235.733 298.140,235.805 298.721,235.892 297.891 C 235.979 297.061,235.977 295.801,235.889 295.091 C 235.800 294.381,235.729 295.060,235.731 296.600 M235.232 299.969 C 235.214 300.281,234.892 300.911,234.515 301.369 C 233.869 302.153,233.883 302.151,234.762 301.342 C 235.275 300.870,235.597 300.240,235.479 299.942 C 235.304 299.503,235.257 299.508,235.232 299.969 M166.600 301.812 L 167.800 302.796 177.900 302.798 C 187.184 302.800,188.927 302.980,187.600 303.800 C 187.380 303.936,187.200 304.251,187.200 304.500 C 187.200 305.112,188.371 303.533,188.387 302.900 C 188.397 302.513,186.075 302.400,178.075 302.400 C 168.304 302.400,167.705 302.357,166.892 301.600 C 166.420 301.160,165.891 300.806,165.717 300.814 C 165.543 300.822,165.940 301.271,166.600 301.812 M223.213 302.300 C 217.610 302.363,212.894 302.546,212.732 302.707 C 212.571 302.868,217.062 302.949,222.713 302.886 C 228.625 302.821,233.151 302.609,233.374 302.386 C 233.586 302.174,233.679 302.042,233.580 302.093 C 233.481 302.144,228.816 302.237,223.213 302.300 M213.445 304.612 C 213.810 305.169,214.186 305.547,214.282 305.451 C 214.519 305.214,213.484 303.600,213.095 303.600 C 212.922 303.600,213.080 304.056,213.445 304.612 M232.200 308.800 C 233.301 309.273,233.692 309.273,233.400 308.800 C 233.264 308.580,232.758 308.413,232.276 308.428 C 231.431 308.455,231.429 308.469,232.200 308.800 M165.893 310.108 C 165.343 310.787,165.200 311.755,165.200 314.807 C 165.200 320.341,165.714 320.800,171.922 320.800 C 174.807 320.800,176.400 320.951,176.400 321.224 C 176.400 321.457,176.580 321.536,176.800 321.400 C 177.980 320.671,176.755 320.400,172.270 320.400 C 165.802 320.400,165.600 320.230,165.600 314.806 C 165.600 311.879,165.745 310.903,166.264 310.329 C 166.630 309.925,166.852 309.518,166.758 309.424 C 166.664 309.330,166.275 309.638,165.893 310.108 M234.448 309.800 C 234.804 310.240,235.195 310.870,235.316 311.200 C 235.503 311.709,235.542 311.704,235.568 311.162 C 235.586 310.811,235.195 310.181,234.700 309.762 C 233.808 309.006,233.806 309.007,234.448 309.800 M235.731 314.600 C 235.733 316.140,235.805 316.721,235.892 315.891 C 235.979 315.061,235.977 313.801,235.889 313.091 C 235.800 312.381,235.729 313.060,235.731 314.600 M234.470 319.253 C 233.539 320.400,233.537 320.400,228.770 320.400 C 226.146 320.400,224.000 320.535,223.999 320.700 C 223.997 321.734,233.516 320.731,234.618 319.581 C 235.236 318.936,235.665 318.340,235.571 318.257 C 235.477 318.174,234.981 318.622,234.470 319.253 M196.700 320.698 C 198.735 320.771,202.065 320.771,204.100 320.698 C 206.135 320.625,204.470 320.566,200.400 320.566 C 196.330 320.566,194.665 320.625,196.700 320.698 M225.845 324.212 C 226.210 324.769,226.586 325.147,226.682 325.051 C 226.919 324.814,225.884 323.200,225.495 323.200 C 225.322 323.200,225.480 323.656,225.845 324.212 M188.657 326.857 C 188.028 327.732,187.592 328.526,187.688 328.621 C 187.783 328.717,188.348 328.051,188.943 327.143 C 190.344 325.002,190.138 324.796,188.657 326.857 M169.057 332.594 C 168.255 333.800,167.600 334.922,167.600 335.087 C 167.600 335.364,168.444 334.192,170.182 331.500 C 170.572 330.895,170.807 330.400,170.703 330.400 C 170.598 330.400,169.858 331.387,169.057 332.594 M215.423 332.700 C 217.841 336.423,218.936 338.000,219.103 338.000 C 219.207 338.000,218.970 337.505,218.577 336.900 C 216.159 333.177,215.064 331.600,214.897 331.600 C 214.793 331.600,215.030 332.095,215.423 332.700 M231.415 332.700 C 232.756 334.785,233.200 335.377,233.200 335.080 C 233.200 334.696,231.155 331.600,230.901 331.600 C 230.795 331.600,231.026 332.095,231.415 332.700 M183.793 334.486 C 181.407 338.132,180.617 339.445,181.077 339.000 C 181.761 338.339,185.679 332.346,185.527 332.194 C 185.449 332.116,184.669 333.148,183.793 334.486 M164.492 339.735 C 164.059 340.469,163.389 341.594,163.005 342.235 L 162.305 343.400 163.133 342.400 C 164.079 341.257,165.744 338.400,165.465 338.400 C 165.363 338.400,164.925 339.001,164.492 339.735 M235.949 339.800 C 236.165 340.240,236.634 340.960,236.993 341.400 L 237.644 342.200 237.251 341.400 C 237.035 340.960,236.566 340.240,236.207 339.800 L 235.556 339.000 235.949 339.800 M221.625 342.200 C 221.625 342.420,221.890 342.949,222.213 343.376 C 222.536 343.804,222.800 343.973,222.800 343.753 C 222.800 343.533,222.536 343.004,222.213 342.576 C 221.890 342.149,221.625 341.980,221.625 342.200 M227.200 351.138 C 227.200 351.324,227.588 351.819,228.062 352.238 L 228.924 353.000 228.216 351.900 C 227.486 350.766,227.200 350.551,227.200 351.138 M171.806 352.688 L 171.104 353.800 172.030 352.911 C 172.539 352.422,172.855 351.922,172.732 351.799 C 172.609 351.676,172.192 352.076,171.806 352.688 M160.011 354.700 C 161.126 355.490,167.507 355.921,169.116 355.315 C 169.690 355.099,168.544 355.030,166.048 355.130 C 162.940 355.255,161.779 355.149,160.771 354.645 C 159.083 353.803,158.775 353.825,160.011 354.700 M231.338 355.294 C 231.592 355.456,233.420 355.588,235.400 355.588 C 237.380 355.588,239.208 355.456,239.462 355.294 C 239.716 355.132,237.888 355.000,235.400 355.000 C 232.912 355.000,231.084 355.132,231.338 355.294 " stroke="none" fill="#59acec" fill-rule="evenodd"></path></g></svg>